<svg width="287" height="190" viewBox="0 0 287 190" fill="none" xmlns="http://www.w3.org/2000/svg">
<path d="M270 189.5H17C7.8873 189.5 0.5 182.113 0.5 173V17C0.5 7.8873 7.8873 0.5 17 0.5H214.773C218.079 0.5 221.308 1.49291 224.043 3.35003L279.27 40.8548C283.792 43.926 286.5 49.0379 286.5 54.5047V173C286.5 182.113 279.113 189.5 270 189.5Z" stroke="black" stroke-opacity="0.1"/>
</svg>
<svg viewBox="0 0 349.32501220703125 225" xmlns="http://www.w3.org/2000/svg" preserveAspectRatio="none" class="stroke-1 stroke-[#818597] h-full w-full absolute z-[9] transition-all duration-200" style="stroke-opacity: 0.15">
                <path d="m 0 6 
                  a 6 6 0 0 1 6 -6 
                  h 250.32501220703125 
                  a 16 16 0 0 1 11 5 
                  l 77 77 
                  a 16 16 0 0 1 5 11 
                  v 126 
                  a 6 6 0 0 1 -6 6 
                  h -337.32501220703125 
                  a 6 6 0 0 1 -6 -6 
                  z" fill="#fff"></path>
                  </svg>